<svg width="32" height="32" viewBox="0 0 32 32" fill="none" xmlns="http://www.w3.org/2000/svg">
  <circle cx="16" cy="16" r="16" fill="#000000"/>
  <g transform="translate(8, 8) scale(0.8)">
    <path d="M12 2c-1.5 0-2.8.6-3.8 1.6L6.8 5c-.3.3-.3.8 0 1.1l1.4 1.4c.3.3.8.3 1.1 0L10.6 6c.4-.4.9-.6 1.4-.6s1 .2 1.4.6c.8.8.8 2 0 2.8l-1.4 1.4c-.3.3-.3.8 0 1.1l1.4 1.4c.3.3.8.3 1.1 0l1.4-1.4c1-1 1.6-2.3 1.6-3.8 0-2.9-2.4-5.3-5.3-5.3z" fill="white"/>
    <ellipse cx="8" cy="12" rx="2" ry="3" fill="white"/>
    <ellipse cx="16" cy="12" rx="2" ry="3" fill="white"/>
    <path d="M12 14c-2.2 0-4 1.8-4 4v2c0 1.1.9 2 2 2h4c1.1 0 2-.9 2-2v-2c0-2.2-1.8-4-4-4z" fill="white"/>
    <path d="M4 16l2-1v2l-2-1zm16 0l-2-1v2l2-1z" fill="white"/>
    <path d="M12 22l-1-2h2l-1 2z" fill="white"/>
  </g>
</svg>
